<svg id="Layer_3" data-name="Layer 3" xmlns="http://www.w3.org/2000/svg" xmlns:xlink="http://www.w3.org/1999/xlink" viewBox="0 0 590 590"><defs><style>.cls-1{fill:url(#radial-gradient);}.cls-2{fill:#6682ba;}.cls-3{fill:#fff;}.cls-4{fill:#00000e;}</style><radialGradient id="radial-gradient" cx="158" cy="210" r="363.06" gradientTransform="translate(26.52 -9.31)" gradientUnits="userSpaceOnUse"><stop offset="0" stop-color="#fff"/><stop offset="0.5" stop-color="#4d6998"/><stop offset="1" stop-color="#1d1d1b"/></radialGradient></defs><title>logo</title><ellipse class="cls-1" cx="295" cy="295" rx="276.48" ry="145.44"/><ellipse class="cls-2" cx="295" cy="295" rx="265.68" ry="134.64"/><path class="cls-3" d="M348.82,338.52L362,270.69c3-15.31.5-26.73-7.35-33.94-7.6-7-20.51-10.38-39.46-10.38H292.36l6.53-33.61a4.32,4.32,0,0,0-4.24-5.14h-31.5a4.32,4.32,0,0,0-4.24,3.5l-14,72a40.5,40.5,0,0,0-9.43-20.81c-9.24-10.58-23.85-15.94-43.44-15.94H131a4.32,4.32,0,0,0-4.24,3.5L98.43,375.62a4.32,4.32,0,0,0,4.24,5.14h31.75a4.32,4.32,0,0,0,4.24-3.5L145.51,342h23.63c12.4,0,22.82-1.34,31-4a60.59,60.59,0,0,0,22.72-13.61,69.87,69.87,0,0,0,13.42-16.67l-5.66,29.12a4.32,4.32,0,0,0,4.24,5.14h31.5a4.32,4.32,0,0,0,4.24-3.5l15.55-80h21.61c9.21,0,11.91,1.83,12.64,2.62s2.05,3.25.5,11.25l-12.53,64.49a4.32,4.32,0,0,0,4.24,5.14h32A4.32,4.32,0,0,0,348.82,338.52Zm-146-56c-2,10.17-5.71,17.42-11.08,21.56s-14.2,6.34-26,6.34H151.66L161.84,258H180c13.37,0,18.75,2.86,20.91,5.25C203.94,266.59,204.57,273.23,202.78,282.48Z"/><path class="cls-3" d="M483.52,242.31c-9.24-10.58-23.85-15.94-43.44-15.94H379a4.32,4.32,0,0,0-4.24,3.5L346.46,375.62a4.32,4.32,0,0,0,4.24,5.14h31.75a4.32,4.32,0,0,0,4.24-3.5L393.54,342h23.63c12.4,0,22.82-1.34,31-4a60.59,60.59,0,0,0,22.72-13.61,67.65,67.65,0,0,0,21.25-38.06C495.72,267.78,492.83,253,483.52,242.31ZM450.6,282.48c-2,10.17-5.71,17.42-11.08,21.56s-14.2,6.34-26,6.34H399.47L409.65,258h18.19c13.37,0,18.75,2.86,20.91,5.25C451.75,266.59,452.39,273.23,450.6,282.48Z"/><path class="cls-4" d="M180,253.69q18.09,0,24.12,6.68T207,283.3q-3.29,16.92-12.69,24.16t-28.6,7.23H146.42l11.86-61H180ZM102.67,376.44h31.75L142,337.69h27.2q18,0,29.62-3.78a56.09,56.09,0,0,0,21.13-12.68,63.33,63.33,0,0,0,19.94-35.7q5-25.92-7.6-40.37t-40.19-14.46H131Z"/><path class="cls-4" d="M263.16,191.94h31.5l-7.53,38.75h28.06q26.48,0,36.54,9.24t6,29.94l-13.18,67.82h-32l12.53-64.49q2.14-11-1.57-15t-15.8-4H282.55l-16.23,83.5h-31.5Z"/><path class="cls-4" d="M427.84,253.69q18.09,0,24.12,6.68t2.87,22.93q-3.29,16.92-12.69,24.16t-28.6,7.23H394.23l11.86-61h21.75ZM350.48,376.44h31.75l7.53-38.75H417q18,0,29.62-3.78a56.09,56.09,0,0,0,21.13-12.68,63.33,63.33,0,0,0,19.94-35.7q5-25.92-7.6-40.37t-40.19-14.46H378.81Z"/></svg>