<?xml version="1.0" encoding="utf-8"?>
<!-- Generator: Adobe Illustrator 19.0.0, SVG Export Plug-In . SVG Version: 6.00 Build 0)  -->
<svg version="1.1" id="Layer_3" xmlns="http://www.w3.org/2000/svg" xmlns:xlink="http://www.w3.org/1999/xlink" x="0px" y="0px"
	 viewBox="8.5 251.6 553 290.9" style="enable-background:new 8.5 251.6 553 290.9;" xml:space="preserve">
<style type="text/css">
	.st0{fill:url(#SVGID_1_);}
	.st1{fill:#6682BA;}
	.st2{fill:#FFFFFF;}
	.st3{fill:#00000E;}
</style>
<title>logo</title>
<radialGradient id="SVGID_1_" cx="148" cy="484" r="363.06" gradientTransform="matrix(1 0 0 -1 26.52 786.69)" gradientUnits="userSpaceOnUse">
	<stop  offset="0" style="stop-color:#FFFFFF"/>
	<stop  offset="0.5" style="stop-color:#4D6998"/>
	<stop  offset="1" style="stop-color:#1D1D1B"/>
</radialGradient>
<ellipse class="st0" cx="285" cy="397" rx="276.5" ry="145.4"/>
<ellipse class="st1" cx="285" cy="397" rx="265.7" ry="134.6"/>
<path class="st2" d="M338.8,440.5l13.2-67.8c3-15.3,0.5-26.7-7.4-33.9c-7.6-7-20.5-10.4-39.5-10.4h-22.8l6.5-33.6
	c0.5-2.3-1.1-4.6-3.4-5.1c-0.3-0.1-0.5-0.1-0.8-0.1h-31.5c-2.1,0-3.8,1.5-4.2,3.5l-14,72c-1.1-7.7-4.4-14.9-9.4-20.8
	c-9.2-10.6-23.9-15.9-43.4-15.9h-61c-2.1,0-3.8,1.5-4.2,3.5L88.4,477.6c-0.5,2.3,1.1,4.6,3.4,5.1c0.3,0.1,0.5,0.1,0.8,0.1h31.8
	c2.1,0,3.8-1.5,4.2-3.5l6.8-35.3h23.6c12.4,0,22.8-1.3,31-4c8.5-2.8,16.2-7.5,22.7-13.6c5.3-4.8,9.8-10.5,13.4-16.7l-5.7,29.1
	c-0.5,2.3,1.1,4.6,3.4,5.1c0.3,0.1,0.5,0.1,0.8,0.1h31.5c2.1,0,3.8-1.5,4.2-3.5l15.5-80h21.6c9.2,0,11.9,1.8,12.6,2.6
	s2,3.3,0.5,11.3l-12.5,64.5c-0.5,2.3,1.1,4.6,3.4,5.1c0.3,0.1,0.5,0.1,0.8,0.1h32C336.7,444,338.4,442.5,338.8,440.5z M192.8,384.5
	c-2,10.2-5.7,17.4-11.1,21.6s-14.2,6.3-26,6.3h-14.1l10.2-52.4H170c13.4,0,18.8,2.9,20.9,5.3C193.9,368.6,194.6,375.2,192.8,384.5
	L192.8,384.5z"/>
<path class="st2" d="M473.5,344.3c-9.2-10.6-23.9-15.9-43.4-15.9H369c-2.1,0-3.8,1.5-4.2,3.5l-28.3,145.8c-0.5,2.3,1.1,4.6,3.4,5.1
	c0.3,0.1,0.5,0.1,0.8,0.1h31.8c2.1,0,3.8-1.5,4.2-3.5l6.9-35.3h23.6c12.4,0,22.8-1.3,31-4c8.5-2.8,16.2-7.5,22.7-13.6
	c11.1-10,18.6-23.4,21.3-38.1C485.7,369.8,482.8,355,473.5,344.3z M440.6,384.5c-2,10.2-5.7,17.4-11.1,21.6s-14.2,6.3-26,6.3h-14.1
	l10.2-52.4h18.2c13.4,0,18.8,2.9,20.9,5.3C441.8,368.6,442.4,375.2,440.6,384.5z"/>
<path class="st3" d="M170,355.7c12.1,0,20.1,2.2,24.1,6.7c4,4.5,5,12.1,2.9,22.9c-2.2,11.3-6.4,19.3-12.7,24.2s-15.8,7.2-28.6,7.2
	h-19.3l11.9-61H170z M92.7,478.4h31.8l7.6-38.8h27.2c12,0,21.9-1.3,29.6-3.8c7.9-2.6,15.1-6.9,21.1-12.7
	c10.4-9.4,17.4-21.9,19.9-35.7c3.3-17.3,0.8-30.7-7.6-40.4c-8.4-9.6-21.8-14.5-40.2-14.5H121L92.7,478.4z"/>
<path class="st3" d="M253.2,293.9h31.5l-7.5,38.8h28.1c17.7,0,29.8,3.1,36.5,9.2c6.7,6.2,8.7,16.1,6,29.9l-13.2,67.8h-32l12.5-64.5
	c1.4-7.3,0.9-12.3-1.6-15c-2.5-2.7-7.7-4-15.8-4h-25.2l-16.2,83.5h-31.5L253.2,293.9z"/>
<path class="st3" d="M417.8,355.7c12.1,0,20.1,2.2,24.1,6.7c4,4.5,5,12.1,2.9,22.9c-2.2,11.3-6.4,19.3-12.7,24.2s-15.8,7.2-28.6,7.2
	h-19.3l11.9-61H417.8z M340.5,478.4h31.8l7.5-38.8H407c12,0,21.9-1.3,29.6-3.8c7.9-2.6,15.1-6.9,21.1-12.7
	c10.4-9.4,17.4-21.9,19.9-35.7c3.3-17.3,0.8-30.7-7.6-40.4c-8.4-9.6-21.8-14.5-40.2-14.5h-61.1L340.5,478.4z"/>
</svg>
